<?xml version="1.0" encoding="utf-8"?>
<!-- Generator: Adobe Illustrator 18.1.1, SVG Export Plug-In . SVG Version: 6.00 Build 0)  -->
<svg version="1.1" xmlns="http://www.w3.org/2000/svg" xmlns:xlink="http://www.w3.org/1999/xlink" x="0px" y="0px"
	 viewBox="0 0 80 80" enable-background="new 0 0 80 80" xml:space="preserve">
<g id="レイヤー_1">
	<polygon points="50,22 46.2,12.8 39.2,5.8 30,2 20,2 10.8,5.8 3.8,12.8 0,22 0,32 23.8,32 0,60 50,60 50,42 41.5,42 50,32 	"/>
</g>
<g id="レイヤー_2">
</g>
<g id="レイヤー_3" display="none">
	<line display="inline" fill="none" stroke="#FF0000" stroke-width="0.3" stroke-miterlimit="10" x1="0" y1="60" x2="50" y2="32"/>
	
		<line display="inline" fill="none" stroke="#FF0000" stroke-width="0.3" stroke-miterlimit="10" x1="15.2" y1="72.9" x2="50" y2="32"/>
	
		<line display="inline" fill="none" stroke="#FF0000" stroke-width="0.3" stroke-miterlimit="10" x1="0" y1="60" x2="34.7" y2="19.2"/>
	<line display="inline" fill="none" stroke="#FF0000" stroke-width="0.3" stroke-miterlimit="10" x1="0" y1="60" x2="0" y2="2.7"/>
	<circle display="inline" fill="none" stroke="#FF0000" stroke-width="0.3" stroke-miterlimit="10" cx="0" cy="60" r="20"/>
	<circle display="inline" fill="none" stroke="#FF0000" stroke-width="0.3" stroke-miterlimit="10" cx="50" cy="32" r="20"/>
	<circle display="inline" fill="none" stroke="#FF0000" stroke-width="0.3" stroke-miterlimit="10" cx="57.3" cy="60" r="20"/>
	<circle display="inline" fill="none" stroke="#FF0000" stroke-width="0.3" stroke-miterlimit="10" cx="0" cy="60" r="57.3"/>
	<circle display="inline" fill="none" stroke="#FF0000" stroke-width="0.3" stroke-miterlimit="10" cx="50" cy="32" r="57.3"/>
</g>
</svg>
